<mxfile host="65bd71144e">
    <diagram id="ZQF833xw1EoGUe7-4v3m" name="Page-1">
        <mxGraphModel dx="1721" dy="-223" grid="1" gridSize="10" guides="1" tooltips="1" connect="1" arrows="1" fold="1" page="1" pageScale="1" pageWidth="850" pageHeight="1100" math="0" shadow="0">
            <root>
                <mxCell id="0"/>
                <mxCell id="1" parent="0"/>
                <mxCell id="398" value="" style="whiteSpace=wrap;html=1;shadow=0;glass=0;sketch=0;opacity=50;fillColor=#f5f5f5;strokeColor=#666666;fontColor=#333333;" parent="1" vertex="1">
                    <mxGeometry x="420" y="1270" width="680" height="190" as="geometry"/>
                </mxCell>
                <mxCell id="382" value="&lt;span style=&quot;background-color: rgb(255, 255, 255);&quot;&gt;Update / authorize&lt;/span&gt;" style="edgeStyle=orthogonalEdgeStyle;html=1;labelBackgroundColor=#907a7a;strokeColor=#000000;fontColor=#000000;startArrow=none;startFill=0;entryX=0;entryY=0.5;entryDx=0;entryDy=0;exitX=1;exitY=0.5;exitDx=0;exitDy=0;" parent="1" source="383" target="387" edge="1">
                    <mxGeometry relative="1" as="geometry">
                        <mxPoint x="400" y="1340" as="targetPoint"/>
                        <mxPoint x="490" y="1370" as="sourcePoint"/>
                    </mxGeometry>
                </mxCell>
                <mxCell id="383" value="turnstile" style="rounded=1;whiteSpace=wrap;html=1;fillColor=#eeeeee;strokeColor=#36393d;" parent="1" vertex="1">
                    <mxGeometry x="450" y="1330" width="140" height="80" as="geometry"/>
                </mxCell>
                <mxCell id="396" value="scan" style="edgeStyle=orthogonalEdgeStyle;html=1;exitX=1;exitY=0.5;exitDx=0;exitDy=0;entryX=0;entryY=0.5;entryDx=0;entryDy=0;labelBackgroundColor=#FFFFFF;startArrow=none;startFill=0;" parent="1" source="385" target="383" edge="1">
                    <mxGeometry relative="1" as="geometry"/>
                </mxCell>
                <mxCell id="385" value="&lt;b&gt;User&lt;/b&gt;" style="rounded=1;whiteSpace=wrap;html=1;fillColor=#ffe6cc;strokeColor=#d79b00;opacity=80;" parent="1" vertex="1">
                    <mxGeometry x="210" y="1330" width="140" height="80" as="geometry"/>
                </mxCell>
                <mxCell id="393" value="State info" style="edgeStyle=orthogonalEdgeStyle;html=1;exitX=1;exitY=0.5;exitDx=0;exitDy=0;entryX=0;entryY=0.5;entryDx=0;entryDy=0;startArrow=block;startFill=1;" parent="1" source="387" target="392" edge="1">
                    <mxGeometry relative="1" as="geometry"/>
                </mxCell>
                <mxCell id="387" value="User state" style="rounded=1;whiteSpace=wrap;html=1;fillColor=#eeeeee;strokeColor=#36393d;" parent="1" vertex="1">
                    <mxGeometry x="710" y="1330" width="140" height="80" as="geometry"/>
                </mxCell>
                <mxCell id="391" value="&lt;h1 style=&quot;border-color: var(--border-color); color: rgb(0, 0, 0); font-family: Helvetica; font-style: normal; font-variant-ligatures: normal; font-variant-caps: normal; letter-spacing: normal; orphans: 2; text-align: center; text-indent: 0px; text-transform: none; widows: 2; word-spacing: 0px; -webkit-text-stroke-width: 0px; background-color: rgb(251, 251, 251); text-decoration-thickness: initial; text-decoration-style: initial; text-decoration-color: initial;&quot;&gt;&lt;b style=&quot;border-color: var(--border-color);&quot;&gt;&lt;font style=&quot;border-color: var(--border-color);&quot; color=&quot;#080808&quot;&gt;TRIP SYSTEM&lt;/font&gt;&lt;/b&gt;&lt;/h1&gt;" style="text;whiteSpace=wrap;html=1;fontColor=#000000;" parent="1" vertex="1">
                    <mxGeometry x="900" y="1260" width="190" height="80" as="geometry"/>
                </mxCell>
                <mxCell id="392" value="User state DB" style="rounded=1;whiteSpace=wrap;html=1;fillColor=#eeeeee;strokeColor=#36393d;" parent="1" vertex="1">
                    <mxGeometry x="940" y="1330" width="140" height="80" as="geometry"/>
                </mxCell>
                <mxCell id="399" value="&lt;h1&gt;Information View - Scanning Procedure&lt;/h1&gt;" style="text;strokeColor=none;align=left;fillColor=none;html=1;verticalAlign=middle;whiteSpace=wrap;rounded=0;" vertex="1" parent="1">
                    <mxGeometry x="210" y="1190" width="670" height="30" as="geometry"/>
                </mxCell>
            </root>
        </mxGraphModel>
    </diagram>
</mxfile>